<?xml version="1.0" encoding="UTF-8"?>
<svg id="Layer_1" xmlns="http://www.w3.org/2000/svg" version="1.1" viewBox="0 0 115.4 38.3">
  <!-- Generator: Adobe Illustrator 29.8.2, SVG Export Plug-In . SVG Version: 2.1.1 Build 3)  -->
  <defs>
    <style>
      .st0 {
        fill: #00004b;
      }

      .st1 {
        isolation: isolate;
      }

      .st2 {
        fill: none;
        stroke: #1160e3;
        stroke-miterlimit: 10;
        stroke-width: 2px;
      }
    </style>
  </defs>
  <g>
    <path class="st2" d="M17.2,9.1h-7.4c-1.1,0-2,.9-2,2v16c0,1.1.9,2,2,2h12c1.1,0,2-.9,2-2v-7.4"/>
    <path class="st2" d="M5.8,13.1h4"/>
    <path class="st2" d="M5.8,17.1h4"/>
    <path class="st2" d="M5.8,21.1h4"/>
    <path class="st2" d="M5.8,25.1h4"/>
    <path class="st2" d="M25.2,12.7c.8-.8.8-2.2,0-3s-2.2-.8-3,0l-5,5c-.2.2-.4.5-.5.9l-.8,2.9c0,.3,0,.5.3.6h.3l2.9-.8c.3,0,.6-.3.9-.5l5-5h0Z"/>
  </g>
  <g class="st1">
    <path class="st0" d="M39,21.1v3.5h5.4c.3,0,.6,0,.7.2.2.1.2.4.2.7v1.8c0,.3,0,.6-.2.7-.2.1-.4.2-.7.2h-8.3c-.4,0-.7,0-.8-.3-.1-.2-.2-.5-.2-1l-.2-15.1c0-.5,0-.8.2-1,.2-.2.5-.3.9-.3h9.2c.3,0,.6,0,.7.2.2.1.2.4.2.7v1.9c0,.3,0,.5-.2.7-.2.1-.4.2-.7.2h-6.3v3.2h5.4c.3,0,.6,0,.7.2.2.1.2.4.2.7v1.9c0,.3,0,.6-.2.7-.2.1-.4.2-.7.2h-5.3Z"/>
    <path class="st0" d="M59.8,27.1c0,.4,0,.7-.2.9-.1.2-.4.2-.7.2h-2.3c-1.2,0-2.2,0-3.3-.3-1-.2-1.9-.5-2.7-1-.8-.5-1.4-1.1-1.9-2s-.7-1.9-.7-3.3.2-2,.6-2.8,1-1.5,1.7-2.1c.7-.6,1.6-1,2.5-1.3.9-.3,1.9-.5,3-.5v-3.4c0-.4,0-.7.2-.9.1-.2.4-.2.7-.2h2.1c.3,0,.6,0,.7.2.1.2.2.4.2.9v15.5ZM52,22c0,.5.1.9.3,1.3.2.3.5.6.8.8.4.2.8.4,1.2.5.5,0,1,.2,1.5.2v-6.1c-1.3.1-2.3.5-2.9,1.1s-.9,1.3-.9,2.3Z"/>
    <path class="st0" d="M62.8,12.5c0-.6.2-1.2.6-1.6s1-.6,1.6-.6,1.2.2,1.6.6c.4.4.7.9.7,1.6s-.2,1.2-.7,1.6c-.4.4-1,.6-1.6.6s-1.2-.2-1.6-.6c-.4-.4-.6-.9-.6-1.6ZM63.1,17.3c0-.5,0-.8.2-1s.4-.3.9-.3h1.9c.4,0,.7,0,.9.3.2.2.2.5.2,1v9.7c0,.5,0,.8-.2,1-.2.2-.4.3-.9.3h-1.9c-.4,0-.7,0-.9-.3-.2-.2-.2-.5-.2-1v-9.7Z"/>
    <path class="st0" d="M71.4,19h-1.4c-.4,0-.7,0-.8-.2-.1-.1-.2-.4-.2-.7v-1.9c0-.4,0-.6.2-.7.1-.1.4-.2.8-.2h1.4v-3.5c0-.5,0-.8.2-1,.2-.2.4-.3.9-.3h1.9c.4,0,.7,0,.9.3.2.2.2.5.2,1v3.5h2.3c.4,0,.7,0,.8.2.1.1.2.4.2.7v1.9c0,.4,0,.6-.2.7-.1.1-.4.2-.8.2h-2.3v4.5c0,.5.1.9.3,1,.2.2.5.3.9.3s.5,0,.8,0c.2,0,.5,0,.7,0,.3,0,.4,0,.4.3v2.7c0,.2,0,.3,0,.4,0,0-.2.1-.4.2-.4,0-.9.1-1.4.2s-.9,0-1.2,0c-1.4,0-2.5-.4-3.2-1.2-.7-.8-1-1.9-1-3.3v-5Z"/>
    <path class="st0" d="M86.3,15.1c2,0,3.5.6,4.5,1.9,1.1,1.3,1.6,3,1.7,5.3,0,.3,0,.5-.1.6s-.3.2-.6.2l-7.6.6c.2.5.5.9,1,1.1.5.2,1,.3,1.6.4.6,0,1.2,0,1.9-.2.7-.1,1.2-.3,1.8-.6.4-.2.6,0,.6.4v2.2c.2.2.1.3,0,.5,0,.1-.2.2-.4.3-.7.2-1.3.4-2.1.5s-1.4.2-1.9.2c-1,0-1.9-.2-2.7-.5-.8-.3-1.5-.8-2.1-1.4-.6-.6-1-1.3-1.3-2.1-.3-.8-.4-1.7-.4-2.7s.1-1.7.4-2.5c.3-.8.7-1.5,1.2-2.1.5-.6,1.2-1.1,1.9-1.5.8-.4,1.6-.5,2.6-.5ZM88.6,20.2c-.2-.6-.4-1-.8-1.4-.3-.3-.8-.5-1.5-.5s-1.2.2-1.7.6-.7,1-.8,1.6l4.7-.4Z"/>
    <path class="st0" d="M105.7,26.5c.1.2.2.3.2.5,0,.2-.1.3-.3.4l-2.2,1c-.3.1-.5.2-.6.1-.1,0-.2-.1-.3-.3l-2.8-3.6-2.8,3.6c-.1.1-.2.2-.3.3-.1,0-.3,0-.6-.1l-2.2-1c-.2,0-.3-.2-.3-.4s0-.3.2-.5l3.8-4.9-3.6-4.6c-.2-.2-.2-.4-.2-.5s.2-.2.3-.3l2.1-1.2c.2,0,.3-.1.4-.1s.2,0,.4.2l2.8,3.6,2.8-3.6c.1-.2.3-.2.4-.2s.3,0,.4.1l2.1,1.2c.2.1.3.2.3.3s0,.3-.2.5l-3.6,4.6,3.8,4.9Z"/>
  </g>
</svg>